<svg id="Layer_1" data-name="Layer 1" xmlns="http://www.w3.org/2000/svg" viewBox="0 0 1031.27 184.12"><defs><style>.cls-1{fill:#fff;}</style></defs><path class="cls-1" d="M545.22,499.64a7.42,7.42,0,0,0,10.67-8.52c-8.43-30.78-15.84-33-17.91-33-10.36.21-19,5.77-24.34,10.48-1.73,1.52-3.7,5.18-.51,8.54,11.8,12.43,20.2,16.6,27.64,20.25C542.3,498.15,543.78,498.88,545.22,499.64Z" transform="translate(-478.75 -444.07)"/><path class="cls-1" d="M523,526.83a7.43,7.43,0,0,0,1.52-13.58c-27.72-15.8-34.56-12.16-36-10.67-7.19,7.48-9.36,17.52-9.8,24.63-.15,2.29,1,6.27,5.67,6.39,17.13.45,26-2.54,33.87-5.22C519.93,527.83,521.49,527.3,523,526.83Z" transform="translate(-478.75 -444.07)"/><path class="cls-1" d="M526.59,561.73a7.43,7.43,0,0,0-8.53-10.68c-30.77,8.44-33,15.84-33,17.91.2,10.37,5.76,19,10.48,24.35,1.52,1.72,5.17,3.69,8.53.5,12.44-11.79,16.6-20.19,20.26-27.63C525.1,564.64,525.83,563.16,526.59,561.73Z" transform="translate(-478.75 -444.07)"/><path class="cls-1" d="M553.77,583.9a7.42,7.42,0,0,0-13.57-1.52c-15.8,27.73-12.17,34.56-10.67,36,7.47,7.18,17.51,9.35,24.62,9.8,2.3.14,6.27-1,6.4-5.68.45-17.13-2.55-26-5.22-33.86C554.78,587,554.25,585.45,553.77,583.9Z" transform="translate(-478.75 -444.07)"/><path class="cls-1" d="M588.67,580.36A7.42,7.42,0,0,0,578,588.88c8.43,30.78,15.84,33,17.91,33,10.36-.21,19-5.77,24.34-10.48,1.72-1.52,3.7-5.18.51-8.54-11.8-12.43-20.2-16.6-27.64-20.25C591.58,581.85,590.1,581.12,588.67,580.36Z" transform="translate(-478.75 -444.07)"/><path class="cls-1" d="M610.84,553.17a7.43,7.43,0,0,0-1.52,13.58c27.73,15.8,34.57,12.16,36,10.67,7.18-7.48,9.36-17.52,9.8-24.63.15-2.29-1-6.27-5.67-6.39-17.14-.45-26,2.54-33.87,5.22C614,552.17,612.39,552.7,610.84,553.17Z" transform="translate(-478.75 -444.07)"/><path class="cls-1" d="M607.3,518.27A7.43,7.43,0,0,0,615.83,529c30.77-8.44,33-15.84,33-17.91-.2-10.37-5.77-19-10.48-24.35-1.52-1.72-5.17-3.69-8.53-.5-12.44,11.79-16.6,20.19-20.26,27.63C608.79,515.36,608.06,516.84,607.3,518.27Z" transform="translate(-478.75 -444.07)"/><path class="cls-1" d="M580.12,496.1a7.42,7.42,0,0,0,13.57,1.52c15.8-27.73,12.16-34.56,10.67-36-7.47-7.18-17.51-9.35-24.63-9.8-2.29-.14-6.27,1.05-6.39,5.68-.45,17.13,2.55,26,5.22,33.86C579.11,493,579.64,494.55,580.12,496.1Z" transform="translate(-478.75 -444.07)"/><path class="cls-1" d="M791.06,490.21h17.45V590.52H791.06V573.27q-13,19.86-37.92,19.86-21.06,0-35.91-15.35t-14.84-37.41q0-22.07,14.84-37.42t35.91-15.34q24.87,0,37.92,19.86Zm-35.71,86.07q15.24,0,25.48-10.34t10.23-25.57q0-15.25-10.23-25.58t-25.48-10.33a34.16,34.16,0,0,0-25.28,10.33q-10.23,10.34-10.23,25.58t10.23,25.57A34.17,34.17,0,0,0,755.35,576.28Z" transform="translate(-478.75 -444.07)"/><path class="cls-1" d="M843.82,472a11.45,11.45,0,0,1-8.43-3.41,11.19,11.19,0,0,1-3.41-8.23,11.5,11.5,0,0,1,3.41-8.32,11.27,11.27,0,0,1,8.43-3.51A11.05,11.05,0,0,1,852,452a11.54,11.54,0,0,1,3.41,8.32A11.64,11.64,0,0,1,843.82,472ZM835,590.52V490.21h17.45V590.52Z" transform="translate(-478.75 -444.07)"/><path class="cls-1" d="M896.57,507.07q8.63-18.66,31.3-18.66v18.25q-12.84-.6-22.07,6.82t-9.23,23.88v53.16H879.12V490.21h17.45Z" transform="translate(-478.75 -444.07)"/><path class="cls-1" d="M994.87,487.61q17.64,0,28.28,11.13t10.64,30.19v61.59h-17.46V529.94q0-12.24-6.62-19t-18.25-6.72q-13.05,0-21.07,8.12t-8,25v53.16H944.92V450.09h17.45v54.57Q973,487.61,994.87,487.61Z" transform="translate(-478.75 -444.07)"/><path class="cls-1" d="M1070.29,548.39q2.61,13.44,12.34,20.86t24,7.43q19.86,0,28.89-14.65l14.85,8.43q-14.65,22.66-44.14,22.67-23.87,0-38.81-15t-15-37.81q0-22.67,14.64-37.72t37.92-15q22.07,0,36,15.54T1155,540.57a52.79,52.79,0,0,1-.6,7.82ZM1105,504.06q-14,0-23.27,7.92t-11.44,21.16h67q-2.22-14.24-11.24-21.66A32.16,32.16,0,0,0,1105,504.06Z" transform="translate(-478.75 -444.07)"/><path class="cls-1" d="M1257.86,490.21h17.46V590.52h-17.46V573.27q-13,19.86-37.91,19.86-21.06,0-35.91-15.35t-14.85-37.41q0-22.07,14.85-37.42T1220,487.61q24.87,0,37.91,19.86Zm-35.71,86.07q15.25,0,25.48-10.34t10.23-25.57q0-15.25-10.23-25.58t-25.48-10.33a34.14,34.14,0,0,0-25.27,10.33q-10.23,10.34-10.23,25.58t10.23,25.57A34.15,34.15,0,0,0,1222.15,576.28Z" transform="translate(-478.75 -444.07)"/><path class="cls-1" d="M1301.79,590.52V444.07h17.46V590.52Z" transform="translate(-478.75 -444.07)"/><path class="cls-1" d="M1400.49,507.07h-26.68v54.36q0,7.43,2.91,10.53t8.93,3.21q6,.11,14.84-.3v15.65q-22.87,3-33.5-3.71t-10.63-25.38V507.07H1336.5V490.21h19.86V467.35l17.45-5.22v28.08h26.68Z" transform="translate(-478.75 -444.07)"/><path class="cls-1" d="M1471.1,487.61q17.65,0,28.29,11.13T1510,528.93v61.59h-17.45V529.94q0-12.24-6.62-19t-18.26-6.72q-13,0-21.06,8.12t-8,25v53.16h-17.46V450.09h17.46v54.57Q1449.23,487.61,1471.1,487.61Z" transform="translate(-478.75 -444.07)"/></svg>