<svg id="Layer_1" data-name="Layer 1" xmlns="http://www.w3.org/2000/svg" viewBox="0 0 184.81 184.81"><path d="M937.23,497.71a7.78,7.78,0,0,0,11.19-8.93c-8.84-32.25-16.6-34.62-18.77-34.57-10.86.21-19.91,6-25.51,11-1.8,1.59-3.87,5.42-.53,8.94,12.36,13,21.17,17.4,29,21.23C934.18,496.15,935.73,496.92,937.23,497.71Z" transform="translate(-867.6 -447.6)"/><path d="M914,526.2A7.78,7.78,0,0,0,915.59,512c-29.05-16.55-36.21-12.74-37.71-11.17-7.53,7.83-9.81,18.35-10.27,25.8-.15,2.4,1.09,6.57,5.94,6.7,18,.47,27.27-2.67,35.49-5.47C910.74,527.25,912.38,526.7,914,526.2Z" transform="translate(-867.6 -447.6)"/><path d="M917.71,562.77a7.78,7.78,0,0,0-8.93-11.19c-32.25,8.84-34.62,16.6-34.57,18.77.21,10.86,6,19.91,11,25.51,1.59,1.8,5.42,3.87,8.94.53,13-12.36,17.4-21.17,21.23-29C916.15,565.82,916.92,564.27,917.71,562.77Z" transform="translate(-867.6 -447.6)"/><path d="M946.2,586A7.78,7.78,0,0,0,932,584.41c-16.55,29.05-12.74,36.21-11.17,37.71,7.83,7.53,18.35,9.81,25.8,10.27,2.4.15,6.57-1.09,6.7-5.94.47-18-2.67-27.27-5.47-35.49C947.25,589.26,946.7,587.62,946.2,586Z" transform="translate(-867.6 -447.6)"/><path d="M982.77,582.29a7.78,7.78,0,0,0-11.19,8.93c8.84,32.25,16.6,34.62,18.77,34.57,10.86-.21,19.91-6,25.51-11,1.8-1.59,3.87-5.42.53-8.94-12.36-13-21.17-17.4-29-21.23C985.82,583.85,984.27,583.08,982.77,582.29Z" transform="translate(-867.6 -447.6)"/><path d="M1006,553.8a7.78,7.78,0,0,0-1.59,14.23c29.05,16.55,36.21,12.74,37.71,11.17,7.53-7.83,9.81-18.35,10.27-25.8.15-2.4-1.09-6.57-5.94-6.7-18-.47-27.27,2.67-35.49,5.47C1009.26,552.75,1007.62,553.3,1006,553.8Z" transform="translate(-867.6 -447.6)"/><path d="M1002.29,517.23a7.78,7.78,0,0,0,8.93,11.19c32.25-8.84,34.62-16.6,34.57-18.77-.21-10.86-6-19.91-11-25.51-1.59-1.8-5.42-3.87-8.94-.53-13,12.36-17.4,21.17-21.23,29C1003.85,514.18,1003.08,515.73,1002.29,517.23Z" transform="translate(-867.6 -447.6)"/><path d="M973.8,494A7.78,7.78,0,0,0,988,495.59c16.55-29,12.74-36.21,11.17-37.71-7.83-7.53-18.35-9.81-25.8-10.27-2.4-.15-6.57,1.09-6.7,5.94-.47,18,2.67,27.27,5.47,35.49C972.75,490.74,973.3,492.38,973.8,494Z" transform="translate(-867.6 -447.6)"/></svg>