<svg id="Layer_1" data-name="Layer 1" xmlns="http://www.w3.org/2000/svg" viewBox="0 0 962.49 176.38"><path d="M797.37,497.49h6.37v91h-6.37v-24.4a44.32,44.32,0,0,1-16.57,19.21,44.9,44.9,0,0,1-24.94,7.19,45.75,45.75,0,0,1-33.49-13.75Q708.53,563,708.53,543t13.84-33.76a45.75,45.75,0,0,1,33.49-13.75,44.9,44.9,0,0,1,24.94,7.19,44.32,44.32,0,0,1,16.57,19.21ZM726.83,572.4a41.85,41.85,0,0,0,58.52,0q12-11.91,12-29.4t-12-29.4a41.87,41.87,0,0,0-58.52,0Q714.91,525.52,714.9,543T726.83,572.4Z" transform="translate(-478.75 -451.81)"/><path d="M841.24,471a5.5,5.5,0,0,1-8,0,5.56,5.56,0,0,1-1.64-3.92,5.76,5.76,0,0,1,1.64-4.09,5.5,5.5,0,0,1,8,0,5.76,5.76,0,0,1,1.64,4.09A5.56,5.56,0,0,1,841.24,471ZM834,588.52v-91h6.55v91Z" transform="translate(-478.75 -451.81)"/><path d="M877.29,518.06q4-11.1,12.74-16.47a36.1,36.1,0,0,1,19.29-5.37v6.19a31.12,31.12,0,0,0-22.75,9.19q-9.29,9.2-9.28,26.31v50.61h-6.56v-91h6.56Z" transform="translate(-478.75 -451.81)"/><path d="M970.13,495.49q15.82,0,25.39,9.83t9.56,26v57.17h-6.37V531.35q0-13.27-7.83-21.48t-21.3-8.19q-14.93,0-24.39,10.2t-9.47,28.21v48.43h-6.55V461.09h6.55V517.7q4.72-11.1,13.74-16.66A38.62,38.62,0,0,1,970.13,495.49Z" transform="translate(-478.75 -451.81)"/><path d="M1072.61,495.49q20,0,32.5,14.2a49.38,49.38,0,0,1,12.47,33.68,17.76,17.76,0,0,1-.19,3.09h-84.64q1.08,16.93,12.56,27.4t28.21,10.47a41.62,41.62,0,0,0,20.3-4.83,32.05,32.05,0,0,0,13.2-12.83l5.64,3.28a39.2,39.2,0,0,1-15.74,15,48.5,48.5,0,0,1-23.4,5.55q-20.74,0-34-13.38T1026.19,543q0-20.21,13.11-33.86T1072.61,495.49Zm0,6.19q-16.74,0-27.94,10.83t-12.11,28H1111q-1.27-17.65-12.1-28.22A36.29,36.29,0,0,0,1072.61,501.68Z" transform="translate(-478.75 -451.81)"/><path d="M1223.16,497.49h6.37v91h-6.37v-24.4a44.3,44.3,0,0,1-16.56,19.21,45,45,0,0,1-24.94,7.19,45.75,45.75,0,0,1-33.5-13.75Q1134.33,563,1134.33,543t13.83-33.76a45.75,45.75,0,0,1,33.5-13.75,45,45,0,0,1,24.94,7.19,44.3,44.3,0,0,1,16.56,19.21Zm-70.54,74.91a41.86,41.86,0,0,0,58.53,0q12-11.91,12-29.4t-12-29.4a41.88,41.88,0,0,0-58.53,0q-11.92,11.92-11.92,29.4T1152.62,572.4Z" transform="translate(-478.75 -451.81)"/><path d="M1259.75,588.52V455.62h6.56v132.9Z" transform="translate(-478.75 -451.81)"/><path d="M1341.67,503.5h-28V567q0,11.47,6.19,14.57t21.84,1.27v5.65q-17.84,2.73-26.12-2.28T1307.27,567V503.5h-20.94v-6h20.94V474l6.37-2v25.48h28Z" transform="translate(-478.75 -451.81)"/><path d="M1406.29,495.49q15.84,0,25.4,9.83t9.56,26v57.17h-6.37V531.35q0-13.27-7.83-21.48t-21.3-8.19q-14.93,0-24.39,10.2t-9.47,28.21v48.43h-6.55V461.09h6.55V517.7q4.72-11.1,13.74-16.66A38.61,38.61,0,0,1,1406.29,495.49Z" transform="translate(-478.75 -451.81)"/><path d="M545.22,499.64a7.42,7.42,0,0,0,10.67-8.52c-8.43-30.78-15.84-33-17.91-33-10.36.21-19,5.77-24.34,10.48-1.73,1.52-3.7,5.18-.51,8.54,11.8,12.43,20.2,16.6,27.64,20.25C542.3,498.15,543.78,498.88,545.22,499.64Z" transform="translate(-478.75 -451.81)"/><path d="M523,526.83a7.43,7.43,0,0,0,1.52-13.58c-27.72-15.8-34.56-12.16-36-10.67-7.19,7.48-9.36,17.52-9.8,24.63-.15,2.29,1,6.27,5.67,6.39,17.13.45,26-2.54,33.87-5.22C519.93,527.83,521.49,527.3,523,526.83Z" transform="translate(-478.75 -451.81)"/><path d="M526.59,561.73a7.43,7.43,0,0,0-8.53-10.68c-30.77,8.44-33,15.84-33,17.91.2,10.37,5.76,19,10.48,24.35,1.52,1.72,5.17,3.69,8.53.5,12.44-11.79,16.6-20.19,20.26-27.63C525.1,564.64,525.83,563.16,526.59,561.73Z" transform="translate(-478.75 -451.81)"/><path d="M553.77,583.9a7.42,7.42,0,0,0-13.57-1.52c-15.8,27.73-12.17,34.56-10.67,36,7.47,7.18,17.51,9.35,24.62,9.8,2.3.14,6.27-1,6.4-5.68.45-17.13-2.55-26-5.22-33.86C554.78,587,554.25,585.45,553.77,583.9Z" transform="translate(-478.75 -451.81)"/><path d="M588.67,580.36A7.42,7.42,0,0,0,578,588.88c8.43,30.78,15.84,33,17.91,33,10.36-.21,19-5.77,24.34-10.48,1.72-1.52,3.7-5.18.51-8.54-11.8-12.43-20.2-16.6-27.64-20.25C591.58,581.85,590.1,581.12,588.67,580.36Z" transform="translate(-478.75 -451.81)"/><path d="M610.84,553.17a7.43,7.43,0,0,0-1.52,13.58c27.73,15.8,34.57,12.16,36,10.67,7.18-7.48,9.36-17.52,9.8-24.63.15-2.29-1-6.27-5.67-6.39-17.14-.45-26,2.54-33.87,5.22C614,552.17,612.39,552.7,610.84,553.17Z" transform="translate(-478.75 -451.81)"/><path d="M607.3,518.27A7.43,7.43,0,0,0,615.83,529c30.77-8.44,33-15.84,33-17.91-.2-10.37-5.77-19-10.48-24.35-1.52-1.72-5.17-3.69-8.53-.5-12.44,11.79-16.6,20.19-20.26,27.63C608.79,515.36,608.06,516.84,607.3,518.27Z" transform="translate(-478.75 -451.81)"/><path d="M580.12,496.1a7.42,7.42,0,0,0,13.57,1.52c15.8-27.73,12.16-34.56,10.67-36-7.47-7.18-17.51-9.35-24.63-9.8-2.29-.14-6.27,1.05-6.39,5.68-.45,17.13,2.55,26,5.22,33.86C579.11,493,579.64,494.55,580.12,496.1Z" transform="translate(-478.75 -451.81)"/></svg>